<mxfile host="app.diagrams.net" agent="Mozilla/5.0 (Windows NT 10.0; Win64; x64) AppleWebKit/537.36 (KHTML, like Gecko) Chrome/131.0.0.0 Safari/537.36 Edg/131.0.0.0" version="25.0.3">
  <diagram name="第 1 页" id="VXq1sAFid8UCujl0T8co">
    <mxGraphModel dx="2066" dy="1141" grid="1" gridSize="10" guides="1" tooltips="1" connect="1" arrows="1" fold="1" page="1" pageScale="1" pageWidth="583" pageHeight="827" math="0" shadow="0">
      <root>
        <mxCell id="0" />
        <mxCell id="1" parent="0" />
        <mxCell id="-gH51xWGw7ICgq0VkhPb-1" value="" style="rounded=0;whiteSpace=wrap;html=1;fillColor=#f5f5f5;fontColor=#333333;strokeColor=#666666;" vertex="1" parent="1">
          <mxGeometry x="40" y="240" width="990" height="900" as="geometry" />
        </mxCell>
        <mxCell id="-gH51xWGw7ICgq0VkhPb-2" value="" style="rounded=0;whiteSpace=wrap;html=1;dashed=1;fillColor=#f9f7ed;strokeColor=#36393d;" vertex="1" parent="1">
          <mxGeometry x="50" y="260" width="160" height="400" as="geometry" />
        </mxCell>
        <mxCell id="-gH51xWGw7ICgq0VkhPb-3" value="" style="rounded=0;whiteSpace=wrap;html=1;dashed=1;fillColor=#f9f7ed;strokeColor=#36393d;" vertex="1" parent="1">
          <mxGeometry x="220" y="260" width="780" height="400" as="geometry" />
        </mxCell>
        <mxCell id="-gH51xWGw7ICgq0VkhPb-4" value="&lt;b&gt;&lt;font style=&quot;font-size: 14px;&quot;&gt;工具层&lt;/font&gt;&lt;/b&gt;" style="text;html=1;align=center;verticalAlign=middle;whiteSpace=wrap;rounded=0;" vertex="1" parent="1">
          <mxGeometry x="50" y="260" width="60" height="30" as="geometry" />
        </mxCell>
        <mxCell id="-gH51xWGw7ICgq0VkhPb-5" value="" style="rounded=0;whiteSpace=wrap;html=1;fillColor=#eeeeee;strokeColor=#36393d;" vertex="1" parent="1">
          <mxGeometry x="70" y="300" width="130" height="110" as="geometry" />
        </mxCell>
        <mxCell id="-gH51xWGw7ICgq0VkhPb-6" value="&lt;b&gt;Query理解干预&lt;/b&gt;" style="rounded=0;whiteSpace=wrap;html=1;shadow=1;strokeColor=#6c8ebf;align=center;verticalAlign=middle;fontFamily=Helvetica;fontSize=12;fontColor=default;fontStyle=1;fillColor=#dae8fc;" vertex="1" parent="1">
          <mxGeometry x="75" y="330" width="115" height="30" as="geometry" />
        </mxCell>
        <mxCell id="-gH51xWGw7ICgq0VkhPb-7" value="&lt;b&gt;排序结果干预&lt;/b&gt;" style="rounded=0;whiteSpace=wrap;html=1;shadow=1;strokeColor=#6c8ebf;align=center;verticalAlign=middle;fontFamily=Helvetica;fontSize=12;fontColor=default;fontStyle=1;fillColor=#dae8fc;" vertex="1" parent="1">
          <mxGeometry x="75" y="370" width="115" height="30" as="geometry" />
        </mxCell>
        <mxCell id="-gH51xWGw7ICgq0VkhPb-8" value="" style="rounded=0;whiteSpace=wrap;html=1;fillColor=#eeeeee;strokeColor=#36393d;" vertex="1" parent="1">
          <mxGeometry x="70" y="420" width="130" height="110" as="geometry" />
        </mxCell>
        <mxCell id="-gH51xWGw7ICgq0VkhPb-9" value="&lt;b&gt;Query理解过程解析&lt;/b&gt;" style="rounded=0;whiteSpace=wrap;html=1;shadow=1;strokeColor=#6c8ebf;align=center;verticalAlign=middle;fontFamily=Helvetica;fontSize=12;fontColor=default;fontStyle=1;fillColor=#dae8fc;" vertex="1" parent="1">
          <mxGeometry x="75" y="450" width="115" height="30" as="geometry" />
        </mxCell>
        <mxCell id="-gH51xWGw7ICgq0VkhPb-10" value="排序过程解析" style="rounded=0;whiteSpace=wrap;html=1;shadow=1;strokeColor=#6c8ebf;align=center;verticalAlign=middle;fontFamily=Helvetica;fontSize=12;fontColor=default;fontStyle=1;fillColor=#dae8fc;" vertex="1" parent="1">
          <mxGeometry x="75" y="490" width="115" height="30" as="geometry" />
        </mxCell>
        <mxCell id="-gH51xWGw7ICgq0VkhPb-13" value="&lt;b&gt;人工干预工具&lt;/b&gt;" style="text;html=1;align=center;verticalAlign=middle;whiteSpace=wrap;rounded=0;" vertex="1" parent="1">
          <mxGeometry x="70" y="300" width="80" height="30" as="geometry" />
        </mxCell>
        <mxCell id="-gH51xWGw7ICgq0VkhPb-14" value="&lt;b&gt;模型结果辅助&lt;/b&gt;" style="text;html=1;align=center;verticalAlign=middle;whiteSpace=wrap;rounded=0;" vertex="1" parent="1">
          <mxGeometry x="70" y="420" width="80" height="30" as="geometry" />
        </mxCell>
        <mxCell id="-gH51xWGw7ICgq0VkhPb-15" value="" style="rounded=0;whiteSpace=wrap;html=1;fillColor=#eeeeee;strokeColor=#36393d;" vertex="1" parent="1">
          <mxGeometry x="69" y="540" width="130" height="110" as="geometry" />
        </mxCell>
        <mxCell id="-gH51xWGw7ICgq0VkhPb-16" value="搜索效果AB评估" style="rounded=0;whiteSpace=wrap;html=1;shadow=1;strokeColor=#6c8ebf;align=center;verticalAlign=middle;fontFamily=Helvetica;fontSize=12;fontColor=default;fontStyle=1;fillColor=#dae8fc;" vertex="1" parent="1">
          <mxGeometry x="74" y="570" width="115" height="30" as="geometry" />
        </mxCell>
        <mxCell id="-gH51xWGw7ICgq0VkhPb-17" value="模型版本评估" style="rounded=0;whiteSpace=wrap;html=1;shadow=1;strokeColor=#6c8ebf;align=center;verticalAlign=middle;fontFamily=Helvetica;fontSize=12;fontColor=default;fontStyle=1;fillColor=#dae8fc;" vertex="1" parent="1">
          <mxGeometry x="74" y="610" width="115" height="30" as="geometry" />
        </mxCell>
        <mxCell id="-gH51xWGw7ICgq0VkhPb-18" value="&lt;b&gt;评估系统&lt;/b&gt;" style="text;html=1;align=center;verticalAlign=middle;whiteSpace=wrap;rounded=0;" vertex="1" parent="1">
          <mxGeometry x="69" y="540" width="80" height="30" as="geometry" />
        </mxCell>
        <mxCell id="-gH51xWGw7ICgq0VkhPb-19" value="&lt;b&gt;商品搜索业务服务&lt;/b&gt;" style="rounded=0;whiteSpace=wrap;html=1;shadow=1;strokeColor=#6c8ebf;align=center;verticalAlign=middle;fontFamily=Helvetica;fontSize=12;fontColor=default;fontStyle=1;fillColor=#dae8fc;" vertex="1" parent="1">
          <mxGeometry x="232" y="315" width="738" height="55" as="geometry" />
        </mxCell>
        <mxCell id="-gH51xWGw7ICgq0VkhPb-20" value="&lt;b&gt;&lt;font style=&quot;font-size: 14px;&quot;&gt;服务层&lt;/font&gt;&lt;/b&gt;" style="text;html=1;align=center;verticalAlign=middle;whiteSpace=wrap;rounded=0;" vertex="1" parent="1">
          <mxGeometry x="220" y="260" width="60" height="30" as="geometry" />
        </mxCell>
        <mxCell id="-gH51xWGw7ICgq0VkhPb-21" value="" style="rounded=0;whiteSpace=wrap;html=1;" vertex="1" parent="1">
          <mxGeometry x="232" y="384" width="318" height="256" as="geometry" />
        </mxCell>
        <mxCell id="-gH51xWGw7ICgq0VkhPb-22" value="&lt;b&gt;Query理解（ML）&lt;/b&gt;" style="text;html=1;align=center;verticalAlign=middle;whiteSpace=wrap;rounded=0;" vertex="1" parent="1">
          <mxGeometry x="232" y="388" width="118" height="30" as="geometry" />
        </mxCell>
        <mxCell id="-gH51xWGw7ICgq0VkhPb-24" value="&lt;b&gt;keyword处理(Exact Match)&lt;/b&gt;" style="text;html=1;align=center;verticalAlign=middle;whiteSpace=wrap;rounded=0;" vertex="1" parent="1">
          <mxGeometry x="394" y="388" width="160" height="30" as="geometry" />
        </mxCell>
        <mxCell id="-gH51xWGw7ICgq0VkhPb-25" value="&lt;b&gt;类目预测&lt;/b&gt;" style="rounded=0;whiteSpace=wrap;html=1;shadow=1;strokeColor=#6c8ebf;align=center;verticalAlign=middle;fontFamily=Helvetica;fontSize=12;fontColor=default;fontStyle=1;fillColor=#dae8fc;" vertex="1" parent="1">
          <mxGeometry x="240" y="418" width="126" height="32" as="geometry" />
        </mxCell>
        <mxCell id="-gH51xWGw7ICgq0VkhPb-26" value="&lt;b&gt;实体识别&lt;/b&gt;" style="rounded=0;whiteSpace=wrap;html=1;shadow=1;strokeColor=#6c8ebf;align=center;verticalAlign=middle;fontFamily=Helvetica;fontSize=12;fontColor=default;fontStyle=1;fillColor=#dae8fc;" vertex="1" parent="1">
          <mxGeometry x="240" y="462" width="126" height="30" as="geometry" />
        </mxCell>
        <mxCell id="-gH51xWGw7ICgq0VkhPb-27" value="&lt;b&gt;Query改写&lt;/b&gt;" style="rounded=0;whiteSpace=wrap;html=1;shadow=1;strokeColor=#6c8ebf;align=center;verticalAlign=middle;fontFamily=Helvetica;fontSize=12;fontColor=default;fontStyle=1;fillColor=#dae8fc;" vertex="1" parent="1">
          <mxGeometry x="240" y="508" width="126" height="32" as="geometry" />
        </mxCell>
        <mxCell id="-gH51xWGw7ICgq0VkhPb-28" value="&lt;b&gt;Embedding&lt;/b&gt;" style="rounded=0;whiteSpace=wrap;html=1;shadow=1;strokeColor=#6c8ebf;align=center;verticalAlign=middle;fontFamily=Helvetica;fontSize=12;fontColor=default;fontStyle=1;fillColor=#dae8fc;" vertex="1" parent="1">
          <mxGeometry x="240" y="600" width="126" height="30" as="geometry" />
        </mxCell>
        <mxCell id="-gH51xWGw7ICgq0VkhPb-29" value="&lt;b&gt;分词&lt;/b&gt;" style="rounded=0;whiteSpace=wrap;html=1;shadow=1;strokeColor=#6c8ebf;align=center;verticalAlign=middle;fontFamily=Helvetica;fontSize=12;fontColor=default;fontStyle=1;fillColor=#dae8fc;" vertex="1" parent="1">
          <mxGeometry x="412" y="420" width="126" height="30" as="geometry" />
        </mxCell>
        <mxCell id="-gH51xWGw7ICgq0VkhPb-30" value="&lt;b&gt;Term weight&lt;/b&gt;" style="rounded=0;whiteSpace=wrap;html=1;shadow=1;strokeColor=#6c8ebf;align=center;verticalAlign=middle;fontFamily=Helvetica;fontSize=12;fontColor=default;fontStyle=1;fillColor=#dae8fc;" vertex="1" parent="1">
          <mxGeometry x="240" y="557" width="126" height="30" as="geometry" />
        </mxCell>
        <mxCell id="-gH51xWGw7ICgq0VkhPb-32" value="&lt;b&gt;Stemming&lt;/b&gt;" style="rounded=0;whiteSpace=wrap;html=1;shadow=1;strokeColor=#6c8ebf;align=center;verticalAlign=middle;fontFamily=Helvetica;fontSize=12;fontColor=default;fontStyle=1;fillColor=#dae8fc;" vertex="1" parent="1">
          <mxGeometry x="411" y="468" width="126" height="40" as="geometry" />
        </mxCell>
        <mxCell id="-gH51xWGw7ICgq0VkhPb-33" value="&lt;b&gt;停词&lt;/b&gt;" style="rounded=0;whiteSpace=wrap;html=1;shadow=1;strokeColor=#6c8ebf;align=center;verticalAlign=middle;fontFamily=Helvetica;fontSize=12;fontColor=default;fontStyle=1;fillColor=#dae8fc;" vertex="1" parent="1">
          <mxGeometry x="411" y="520" width="126" height="42" as="geometry" />
        </mxCell>
        <mxCell id="-gH51xWGw7ICgq0VkhPb-35" value="&lt;b&gt;短语&lt;/b&gt;" style="rounded=0;whiteSpace=wrap;html=1;shadow=1;strokeColor=#6c8ebf;align=center;verticalAlign=middle;fontFamily=Helvetica;fontSize=12;fontColor=default;fontStyle=1;fillColor=#dae8fc;" vertex="1" parent="1">
          <mxGeometry x="411" y="580" width="126" height="40" as="geometry" />
        </mxCell>
        <mxCell id="-gH51xWGw7ICgq0VkhPb-36" value="" style="rounded=0;whiteSpace=wrap;html=1;" vertex="1" parent="1">
          <mxGeometry x="570" y="388" width="210" height="252" as="geometry" />
        </mxCell>
        <mxCell id="-gH51xWGw7ICgq0VkhPb-37" value="" style="endArrow=none;dashed=1;html=1;dashPattern=1 3;strokeWidth=2;rounded=0;entryX=0.5;entryY=0;entryDx=0;entryDy=0;exitX=0.5;exitY=1;exitDx=0;exitDy=0;" edge="1" parent="1" source="-gH51xWGw7ICgq0VkhPb-21" target="-gH51xWGw7ICgq0VkhPb-21">
          <mxGeometry width="50" height="50" relative="1" as="geometry">
            <mxPoint x="390" y="610" as="sourcePoint" />
            <mxPoint x="440" y="560" as="targetPoint" />
          </mxGeometry>
        </mxCell>
        <mxCell id="-gH51xWGw7ICgq0VkhPb-38" value="" style="endArrow=none;dashed=1;html=1;dashPattern=1 3;strokeWidth=2;rounded=0;exitX=0;exitY=0.5;exitDx=0;exitDy=0;entryX=1;entryY=0.5;entryDx=0;entryDy=0;" edge="1" parent="1" source="-gH51xWGw7ICgq0VkhPb-36" target="-gH51xWGw7ICgq0VkhPb-36">
          <mxGeometry width="50" height="50" relative="1" as="geometry">
            <mxPoint x="390" y="610" as="sourcePoint" />
            <mxPoint x="440" y="560" as="targetPoint" />
          </mxGeometry>
        </mxCell>
        <mxCell id="-gH51xWGw7ICgq0VkhPb-39" value="&lt;b&gt;多路结果融合&lt;/b&gt;" style="rounded=0;whiteSpace=wrap;html=1;shadow=1;strokeColor=#6c8ebf;align=center;verticalAlign=middle;fontFamily=Helvetica;fontSize=12;fontColor=default;fontStyle=1;fillColor=#dae8fc;" vertex="1" parent="1">
          <mxGeometry x="600" y="410" width="140" height="60" as="geometry" />
        </mxCell>
        <mxCell id="-gH51xWGw7ICgq0VkhPb-40" value="&lt;b&gt;Embedding&lt;br&gt;召回&lt;/b&gt;" style="rounded=0;whiteSpace=wrap;html=1;shadow=1;strokeColor=#6c8ebf;align=center;verticalAlign=middle;fontFamily=Helvetica;fontSize=12;fontColor=default;fontStyle=1;fillColor=#dae8fc;" vertex="1" parent="1">
          <mxGeometry x="583" y="530" width="87" height="100" as="geometry" />
        </mxCell>
        <mxCell id="-gH51xWGw7ICgq0VkhPb-42" value="&lt;b&gt;Exact Match&lt;br&gt;召回&lt;/b&gt;" style="rounded=0;whiteSpace=wrap;html=1;shadow=1;strokeColor=#6c8ebf;align=center;verticalAlign=middle;fontFamily=Helvetica;fontSize=12;fontColor=default;fontStyle=1;fillColor=#dae8fc;" vertex="1" parent="1">
          <mxGeometry x="680" y="530" width="87" height="100" as="geometry" />
        </mxCell>
        <mxCell id="-gH51xWGw7ICgq0VkhPb-43" value="" style="rounded=0;whiteSpace=wrap;html=1;" vertex="1" parent="1">
          <mxGeometry x="800" y="388" width="170" height="252" as="geometry" />
        </mxCell>
        <mxCell id="-gH51xWGw7ICgq0VkhPb-44" value="&lt;b&gt;特征召回&lt;/b&gt;" style="rounded=0;whiteSpace=wrap;html=1;shadow=1;strokeColor=#6c8ebf;align=center;verticalAlign=middle;fontFamily=Helvetica;fontSize=12;fontColor=default;fontStyle=1;fillColor=#dae8fc;" vertex="1" parent="1">
          <mxGeometry x="815" y="530" width="65" height="100" as="geometry" />
        </mxCell>
        <mxCell id="-gH51xWGw7ICgq0VkhPb-45" value="&lt;b&gt;重排模型&lt;/b&gt;" style="rounded=0;whiteSpace=wrap;html=1;shadow=1;strokeColor=#6c8ebf;align=center;verticalAlign=middle;fontFamily=Helvetica;fontSize=12;fontColor=default;fontStyle=1;fillColor=#dae8fc;" vertex="1" parent="1">
          <mxGeometry x="890" y="530" width="65" height="100" as="geometry" />
        </mxCell>
        <mxCell id="-gH51xWGw7ICgq0VkhPb-46" value="&lt;b&gt;商品精排&lt;/b&gt;" style="rounded=0;whiteSpace=wrap;html=1;shadow=1;strokeColor=#6c8ebf;align=center;verticalAlign=middle;fontFamily=Helvetica;fontSize=12;fontColor=default;fontStyle=1;fillColor=#dae8fc;" vertex="1" parent="1">
          <mxGeometry x="825" y="418" width="120" height="62" as="geometry" />
        </mxCell>
        <mxCell id="-gH51xWGw7ICgq0VkhPb-47" value="" style="rounded=0;whiteSpace=wrap;html=1;dashed=1;fillColor=#f9f7ed;strokeColor=#36393d;" vertex="1" parent="1">
          <mxGeometry x="50" y="690" width="950" height="240" as="geometry" />
        </mxCell>
        <mxCell id="-gH51xWGw7ICgq0VkhPb-48" value="&lt;b&gt;&lt;font style=&quot;font-size: 14px;&quot;&gt;数据层&lt;/font&gt;&lt;/b&gt;" style="text;html=1;align=center;verticalAlign=middle;whiteSpace=wrap;rounded=0;" vertex="1" parent="1">
          <mxGeometry x="50" y="690" width="80" height="30" as="geometry" />
        </mxCell>
        <mxCell id="-gH51xWGw7ICgq0VkhPb-49" value="" style="rounded=0;whiteSpace=wrap;html=1;fillColor=#eeeeee;strokeColor=#36393d;" vertex="1" parent="1">
          <mxGeometry x="69" y="740" width="341" height="170" as="geometry" />
        </mxCell>
        <mxCell id="-gH51xWGw7ICgq0VkhPb-50" value="&lt;b&gt;特征中心&lt;/b&gt;" style="text;html=1;align=center;verticalAlign=middle;whiteSpace=wrap;rounded=0;" vertex="1" parent="1">
          <mxGeometry x="70" y="740" width="70" height="30" as="geometry" />
        </mxCell>
        <mxCell id="-gH51xWGw7ICgq0VkhPb-51" value="&lt;b&gt;特征加工&lt;/b&gt;" style="rounded=0;whiteSpace=wrap;html=1;shadow=1;strokeColor=#6c8ebf;align=center;verticalAlign=middle;fontFamily=Helvetica;fontSize=12;fontColor=default;fontStyle=1;fillColor=#dae8fc;" vertex="1" parent="1">
          <mxGeometry x="84" y="777" width="100" height="50" as="geometry" />
        </mxCell>
        <mxCell id="-gH51xWGw7ICgq0VkhPb-52" value="&lt;b&gt;特征回流&lt;/b&gt;" style="rounded=0;whiteSpace=wrap;html=1;shadow=1;strokeColor=#6c8ebf;align=center;verticalAlign=middle;fontFamily=Helvetica;fontSize=12;fontColor=default;fontStyle=1;fillColor=#dae8fc;" vertex="1" parent="1">
          <mxGeometry x="190" y="777" width="100" height="50" as="geometry" />
        </mxCell>
        <mxCell id="-gH51xWGw7ICgq0VkhPb-53" value="特征审计" style="rounded=0;whiteSpace=wrap;html=1;shadow=1;strokeColor=#6c8ebf;align=center;verticalAlign=middle;fontFamily=Helvetica;fontSize=12;fontColor=default;fontStyle=1;fillColor=#dae8fc;" vertex="1" parent="1">
          <mxGeometry x="295.5" y="777" width="100" height="50" as="geometry" />
        </mxCell>
        <mxCell id="-gH51xWGw7ICgq0VkhPb-54" value="特征清洗" style="rounded=0;whiteSpace=wrap;html=1;shadow=1;strokeColor=#6c8ebf;align=center;verticalAlign=middle;fontFamily=Helvetica;fontSize=12;fontColor=default;fontStyle=1;fillColor=#dae8fc;" vertex="1" parent="1">
          <mxGeometry x="80" y="850" width="310" height="40" as="geometry" />
        </mxCell>
        <mxCell id="-gH51xWGw7ICgq0VkhPb-55" value="" style="rounded=0;whiteSpace=wrap;html=1;fillColor=#eeeeee;strokeColor=#36393d;" vertex="1" parent="1">
          <mxGeometry x="450" y="740" width="140" height="170" as="geometry" />
        </mxCell>
        <mxCell id="-gH51xWGw7ICgq0VkhPb-56" value="&lt;b&gt;AI模型&lt;/b&gt;" style="text;html=1;align=center;verticalAlign=middle;whiteSpace=wrap;rounded=0;" vertex="1" parent="1">
          <mxGeometry x="450" y="740" width="70" height="30" as="geometry" />
        </mxCell>
        <mxCell id="-gH51xWGw7ICgq0VkhPb-57" value="&lt;b&gt;模型压缩蒸馏&lt;/b&gt;" style="rounded=0;whiteSpace=wrap;html=1;shadow=1;strokeColor=#6c8ebf;align=center;verticalAlign=middle;fontFamily=Helvetica;fontSize=12;fontColor=default;fontStyle=1;fillColor=#dae8fc;" vertex="1" parent="1">
          <mxGeometry x="460" y="770" width="120" height="38" as="geometry" />
        </mxCell>
        <mxCell id="-gH51xWGw7ICgq0VkhPb-58" value="模型训练" style="rounded=0;whiteSpace=wrap;html=1;fontStyle=1;fillColor=#dae8fc;strokeColor=#6c8ebf;shadow=1;" vertex="1" parent="1">
          <mxGeometry x="460" y="820" width="120" height="38" as="geometry" />
        </mxCell>
        <mxCell id="-gH51xWGw7ICgq0VkhPb-59" value="模型数据集" style="rounded=0;whiteSpace=wrap;html=1;shadow=1;strokeColor=#6c8ebf;align=center;verticalAlign=middle;fontFamily=Helvetica;fontSize=12;fontColor=default;fontStyle=1;fillColor=#dae8fc;" vertex="1" parent="1">
          <mxGeometry x="460" y="864" width="120" height="38" as="geometry" />
        </mxCell>
        <mxCell id="-gH51xWGw7ICgq0VkhPb-60" value="" style="rounded=0;whiteSpace=wrap;html=1;fillColor=#eeeeee;strokeColor=#36393d;" vertex="1" parent="1">
          <mxGeometry x="630" y="740" width="340" height="170" as="geometry" />
        </mxCell>
        <mxCell id="-gH51xWGw7ICgq0VkhPb-61" value="&lt;b&gt;商品索引系统&lt;/b&gt;" style="text;html=1;align=center;verticalAlign=middle;whiteSpace=wrap;rounded=0;" vertex="1" parent="1">
          <mxGeometry x="630" y="740" width="120" height="30" as="geometry" />
        </mxCell>
        <mxCell id="-gH51xWGw7ICgq0VkhPb-62" value="商品全量索引" style="rounded=0;whiteSpace=wrap;html=1;shadow=1;strokeColor=#6c8ebf;align=center;verticalAlign=middle;fontFamily=Helvetica;fontSize=12;fontColor=default;fontStyle=1;fillColor=#dae8fc;" vertex="1" parent="1">
          <mxGeometry x="650" y="777" width="190" height="53" as="geometry" />
        </mxCell>
        <mxCell id="-gH51xWGw7ICgq0VkhPb-63" value="Embedding全量" style="rounded=0;whiteSpace=wrap;html=1;shadow=1;strokeColor=#6c8ebf;align=center;verticalAlign=middle;fontFamily=Helvetica;fontSize=12;fontColor=default;fontStyle=1;fillColor=#dae8fc;" vertex="1" parent="1">
          <mxGeometry x="650" y="843.5" width="90" height="53" as="geometry" />
        </mxCell>
        <mxCell id="-gH51xWGw7ICgq0VkhPb-64" value="商品信息ETL" style="rounded=0;whiteSpace=wrap;html=1;shadow=1;strokeColor=#6c8ebf;align=center;verticalAlign=middle;fontFamily=Helvetica;fontSize=12;fontColor=default;fontStyle=1;fillColor=#dae8fc;" vertex="1" parent="1">
          <mxGeometry x="750" y="843.5" width="90" height="53" as="geometry" />
        </mxCell>
        <mxCell id="-gH51xWGw7ICgq0VkhPb-65" value="" style="rounded=0;whiteSpace=wrap;html=1;shadow=1;strokeColor=#6c8ebf;align=center;verticalAlign=middle;fontFamily=Helvetica;fontSize=12;fontColor=default;fontStyle=1;fillColor=#dae8fc;" vertex="1" parent="1">
          <mxGeometry x="850" y="777" width="110" height="120" as="geometry" />
        </mxCell>
        <mxCell id="-gH51xWGw7ICgq0VkhPb-66" value="" style="endArrow=none;dashed=1;html=1;dashPattern=1 3;strokeWidth=2;rounded=0;entryX=1;entryY=0.5;entryDx=0;entryDy=0;exitX=0;exitY=0.5;exitDx=0;exitDy=0;" edge="1" parent="1" source="-gH51xWGw7ICgq0VkhPb-65" target="-gH51xWGw7ICgq0VkhPb-65">
          <mxGeometry width="50" height="50" relative="1" as="geometry">
            <mxPoint x="670" y="1060" as="sourcePoint" />
            <mxPoint x="720" y="1010" as="targetPoint" />
          </mxGeometry>
        </mxCell>
        <mxCell id="-gH51xWGw7ICgq0VkhPb-67" value="&lt;b&gt;商品增量&lt;/b&gt;" style="text;html=1;align=center;verticalAlign=middle;whiteSpace=wrap;rounded=0;" vertex="1" parent="1">
          <mxGeometry x="875" y="787" width="60" height="30" as="geometry" />
        </mxCell>
        <mxCell id="-gH51xWGw7ICgq0VkhPb-68" value="&lt;b&gt;Embedding增量&lt;/b&gt;" style="text;html=1;align=center;verticalAlign=middle;whiteSpace=wrap;rounded=0;" vertex="1" parent="1">
          <mxGeometry x="860" y="855" width="100" height="30" as="geometry" />
        </mxCell>
        <mxCell id="-gH51xWGw7ICgq0VkhPb-70" value="" style="rounded=0;whiteSpace=wrap;html=1;dashed=1;fillColor=#f9f7ed;strokeColor=#36393d;" vertex="1" parent="1">
          <mxGeometry x="50" y="960" width="950" height="150" as="geometry" />
        </mxCell>
        <mxCell id="-gH51xWGw7ICgq0VkhPb-71" value="&lt;b&gt;基础设施层&lt;/b&gt;" style="text;html=1;align=center;verticalAlign=middle;whiteSpace=wrap;rounded=0;" vertex="1" parent="1">
          <mxGeometry x="50" y="960" width="80" height="40" as="geometry" />
        </mxCell>
        <mxCell id="-gH51xWGw7ICgq0VkhPb-72" value="Azkaban&lt;br&gt;（调度系统）" style="rounded=0;whiteSpace=wrap;html=1;shadow=1;strokeColor=#6c8ebf;align=center;verticalAlign=middle;fontFamily=Helvetica;fontSize=12;fontColor=default;fontStyle=1;fillColor=#dae8fc;" vertex="1" parent="1">
          <mxGeometry x="64" y="1020" width="96" height="50" as="geometry" />
        </mxCell>
        <mxCell id="-gH51xWGw7ICgq0VkhPb-73" value="Solr &lt;br&gt;（搜索引擎）" style="rounded=0;whiteSpace=wrap;html=1;shadow=1;strokeColor=#6c8ebf;align=center;verticalAlign=middle;fontFamily=Helvetica;fontSize=12;fontColor=default;fontStyle=1;fillColor=#dae8fc;" vertex="1" parent="1">
          <mxGeometry x="182.75" y="1020" width="97.25" height="50" as="geometry" />
        </mxCell>
        <mxCell id="-gH51xWGw7ICgq0VkhPb-74" value="ES &lt;br&gt;（评估报表）" style="rounded=0;whiteSpace=wrap;html=1;shadow=1;strokeColor=#6c8ebf;align=center;verticalAlign=middle;fontFamily=Helvetica;fontSize=12;fontColor=default;fontStyle=1;fillColor=#dae8fc;" vertex="1" parent="1">
          <mxGeometry x="302" y="1020" width="98" height="50" as="geometry" />
        </mxCell>
        <mxCell id="-gH51xWGw7ICgq0VkhPb-75" value="Hive&lt;br&gt;（数仓）" style="rounded=0;whiteSpace=wrap;html=1;shadow=1;strokeColor=#6c8ebf;align=center;verticalAlign=middle;fontFamily=Helvetica;fontSize=12;fontColor=default;fontStyle=1;fillColor=#dae8fc;" vertex="1" parent="1">
          <mxGeometry x="412" y="1020" width="98" height="50" as="geometry" />
        </mxCell>
        <mxCell id="-gH51xWGw7ICgq0VkhPb-76" value="Redis&lt;br&gt;（缓存、实时特征）" style="rounded=0;whiteSpace=wrap;html=1;shadow=1;strokeColor=#6c8ebf;align=center;verticalAlign=middle;fontFamily=Helvetica;fontSize=12;fontColor=default;fontStyle=1;fillColor=#dae8fc;" vertex="1" parent="1">
          <mxGeometry x="520" y="1020" width="120" height="50" as="geometry" />
        </mxCell>
        <mxCell id="-gH51xWGw7ICgq0VkhPb-77" value="Mapreduce&lt;br&gt;（离线计算）" style="rounded=0;whiteSpace=wrap;html=1;shadow=1;strokeColor=#6c8ebf;align=center;verticalAlign=middle;fontFamily=Helvetica;fontSize=12;fontColor=default;fontStyle=1;fillColor=#dae8fc;" vertex="1" parent="1">
          <mxGeometry x="650" y="1020" width="120" height="50" as="geometry" />
        </mxCell>
        <mxCell id="-gH51xWGw7ICgq0VkhPb-78" value="Spark streaming&lt;br&gt;（实时计算）" style="rounded=0;whiteSpace=wrap;html=1;shadow=1;strokeColor=#6c8ebf;align=center;verticalAlign=middle;fontFamily=Helvetica;fontSize=12;fontColor=default;fontStyle=1;fillColor=#dae8fc;" vertex="1" parent="1">
          <mxGeometry x="880" y="1020" width="110" height="50" as="geometry" />
        </mxCell>
        <mxCell id="-gH51xWGw7ICgq0VkhPb-79" value="Kafka&lt;br&gt;（消息队列）" style="rounded=0;whiteSpace=wrap;html=1;shadow=1;strokeColor=#6c8ebf;align=center;verticalAlign=middle;fontFamily=Helvetica;fontSize=12;fontColor=default;fontStyle=1;fillColor=#dae8fc;" vertex="1" parent="1">
          <mxGeometry x="775" y="1020" width="92.5" height="50" as="geometry" />
        </mxCell>
      </root>
    </mxGraphModel>
  </diagram>
</mxfile>
